<svg width="340" height="513" viewBox="0 0 340 513" fill="none" xmlns="http://www.w3.org/2000/svg">
<path d="M339.687 499.266C302.196 512.058 262.25 515.985 222.986 510.738C183.722 505.492 146.208 491.215 113.391 469.028C80.5733 446.842 53.3459 417.35 33.8463 382.869C14.3467 348.387 3.10574 309.855 1.00618 270.297C-1.09339 230.739 6.00562 191.234 21.7457 154.882C37.4857 118.53 61.4383 86.3215 91.7227 60.7859C122.007 35.2502 157.799 17.0825 196.287 7.70922C234.775 -1.66403 274.913 -1.9876 313.547 6.76391C207.682 42.7977 134.04 145.7 140.259 262.885C146.481 380.112 230.561 474.643 339.687 499.266Z" fill="black"/>
</svg>
