<svg width="478" height="478" viewBox="0 0 478 478" fill="none" xmlns="http://www.w3.org/2000/svg">
<path d="M327.93 238.943C327.93 287.92 288.117 327.623 239.008 327.623C189.898 327.623 150.084 287.919 150.084 238.943C150.084 189.967 189.898 150.263 239.008 150.263C288.117 150.263 327.93 189.967 327.93 238.943Z" fill="black" stroke="black" stroke-width="9.06911" stroke-linecap="round" stroke-linejoin="round"/>
<path d="M167.092 71.2358C168.594 70.5952 170.827 72.4654 172.098 75.4291L189.924 117.009C191.194 119.972 191.008 122.874 189.505 123.515C188.002 124.155 185.77 122.285 184.499 119.321L166.673 77.7418C165.402 74.7781 165.589 71.8764 167.092 71.2358Z" fill="black" stroke="black" stroke-width="15" stroke-linecap="round" stroke-linejoin="round"/>
<path d="M306.304 69.9908C307.824 70.6045 308.091 73.5021 306.901 76.4879L290.218 118.376C289.028 121.362 286.847 123.271 285.328 122.658C283.808 122.044 283.541 119.146 284.731 116.161L301.414 74.2725C302.604 71.2868 304.785 69.3772 306.304 69.9908Z" fill="black" stroke="black" stroke-width="15" stroke-linecap="round" stroke-linejoin="round"/>
<path d="M406.092 167.728C406.739 169.236 404.882 171.464 401.93 172.723L360.508 190.382C357.555 191.641 354.658 191.439 354.011 189.931C353.364 188.422 355.221 186.195 358.173 184.936L399.595 167.277C402.547 166.018 405.445 166.219 406.092 167.728Z" fill="black" stroke="black" stroke-width="15" stroke-linecap="round" stroke-linejoin="round"/>
<path d="M407.998 307.195C407.393 308.714 404.502 308.967 401.515 307.761L359.621 290.846C356.635 289.64 354.718 287.446 355.323 285.927C355.929 284.407 358.82 284.154 361.806 285.36L403.7 302.275C406.687 303.481 408.603 305.675 407.998 307.195Z" fill="black" stroke="black" stroke-width="15" stroke-linecap="round" stroke-linejoin="round"/>
<path d="M310.908 406.691C309.406 407.332 307.173 405.462 305.902 402.498L288.076 360.918C286.806 357.955 286.992 355.053 288.495 354.412C289.998 353.772 292.23 355.642 293.501 358.606L311.327 400.185C312.598 403.149 312.411 406.051 310.908 406.691Z" fill="black" stroke="black" stroke-width="15" stroke-linecap="round" stroke-linejoin="round"/>
<path d="M171.694 407.937C170.174 407.323 169.908 404.425 171.097 401.44L187.781 359.551C188.97 356.566 191.151 354.656 192.671 355.27C194.191 355.883 194.457 358.781 193.268 361.767L176.584 403.655C175.395 406.641 173.214 408.55 171.694 407.937Z" fill="black" stroke="black" stroke-width="15" stroke-linecap="round" stroke-linejoin="round"/>
<path d="M71.9081 310.199C71.2614 308.691 73.1176 306.463 76.0701 305.204L117.492 287.545C120.444 286.286 123.342 286.488 123.989 287.996C124.635 289.505 122.779 291.733 119.827 292.991L78.4049 310.65C75.4525 311.909 72.5549 311.708 71.9081 310.199Z" fill="black" stroke="black" stroke-width="15" stroke-linecap="round" stroke-linejoin="round"/>
<path d="M70.0015 170.733C70.6067 169.213 73.4979 168.961 76.4841 170.166L118.379 187.082C121.365 188.287 123.282 190.481 122.676 192.001C122.071 193.521 119.18 193.773 116.194 192.568L74.299 175.652C71.3129 174.447 69.3962 172.253 70.0015 170.733Z" fill="black" stroke="black" stroke-width="15" stroke-linecap="round" stroke-linejoin="round"/>
</svg>
